<svg height='300px' width='300px'  fill="#000000" xmlns="http://www.w3.org/2000/svg" xmlns:xlink="http://www.w3.org/1999/xlink" viewBox="0 0 90 75" version="1.1" x="0px" y="0px"><title>Combined Shape</title><desc>Created with Sketch.</desc><g stroke="none" stroke-width="1" fill="none" fill-rule="evenodd"><path d="M82.5,62.0625 L82.5,11.2532687 C82.5,9.18316544 80.8233414,7.5 78.7550782,7.5 L11.2449218,7.5 C9.17163718,7.5 7.5,9.18039564 7.5,11.2532687 L7.5,60 L29.2940284,30.033211 C30.5123529,28.3580148 32.4896088,28.3607122 33.7059716,30.033211 L50.25,52.78125 L60.7958572,38.2806964 C62.0131716,36.606889 63.9855721,36.6051617 65.2041428,38.2806964 L82.5,62.0625 Z M0,7.50004787 C0,3.35788581 3.36384835,0 7.49929294,0 L82.5007071,0 C86.6424522,0 90,3.35604966 90,7.50004787 L90,67.4999521 C90,71.6421142 86.6361517,75 82.5007071,75 L7.49929294,75 C3.35754782,75 0,71.6439503 0,67.4999521 L0,7.50004787 Z M67.5,29.25 C71.6421356,29.25 75,25.8921356 75,21.75 C75,17.6078644 71.6421356,14.25 67.5,14.25 C63.3578644,14.25 60,17.6078644 60,21.75 C60,25.8921356 63.3578644,29.25 67.5,29.25 Z" fill="#000000"></path></g></svg>